<svg xmlns="http://www.w3.org/2000/svg" viewBox="0 0 1000 1000"><defs><style>.cls-1{fill:#1d84b5;}</style></defs><g id="Layer_2" data-name="Layer 2"><g id="Layer_1-2" data-name="Layer 1"><path class="cls-1" d="M500.5,50.5A450.13,450.13,0,0,1,675.65,915.16,450.13,450.13,0,0,1,325.35,85.84,447.21,447.21,0,0,1,500.5,50.5m0-50C224.36.5.5,224.36.5,500.5s223.86,500,500,500,500-223.86,500-500S776.64.5,500.5.5Z" transform="translate(-0.5 -0.5)"/><path class="cls-1" d="M186.2,434q14.81,0,25.9,5.5a51.56,51.56,0,0,1,18.5,15.3,69,69,0,0,1,11.1,22.5,94.9,94.9,0,0,1,3.7,26.7,91.25,91.25,0,0,1-6.6,35.3,57.52,57.52,0,0,1-19.7,25.3Q206,574,186.2,574H136.4a8.19,8.19,0,0,1-8.2-8.2V442.2a8.19,8.19,0,0,1,8.2-8.2Zm-2,124.4q15.6,0,25.2-7.4a42.7,42.7,0,0,0,14.1-19.8A79.2,79.2,0,0,0,228,504a82.86,82.86,0,0,0-2.5-20.6,53.23,53.23,0,0,0-7.8-17.4,38,38,0,0,0-13.6-12q-8.29-4.39-19.9-4.4H143.4l1.6-1.8V560.4l-1.2-2Z" transform="translate(-0.5 -0.5)"/><path class="cls-1" d="M280.2,434a8.19,8.19,0,0,1,8.2,8.2V565.8a7.73,7.73,0,0,1-2.5,5.8A8.24,8.24,0,0,1,280,574a8,8,0,0,1-8.4-8.2V442.2a7.9,7.9,0,0,1,2.4-5.8A8.4,8.4,0,0,1,280.2,434Zm-.8,61h93l-.2,15.6H278.8Zm92.8-61a8,8,0,0,1,8.4,8.2V565.8a7.9,7.9,0,0,1-2.4,5.8A8.4,8.4,0,0,1,372,574a8.19,8.19,0,0,1-8.2-8.2V442.2a7.73,7.73,0,0,1,2.5-5.8A8.24,8.24,0,0,1,372.2,434Z" transform="translate(-0.5 -0.5)"/><path class="cls-1" d="M631,433.4a8.93,8.93,0,0,1,5.9,2.3,7.83,7.83,0,0,1,2.7,6.3,9.87,9.87,0,0,1-.6,3L596.6,568.8a6.58,6.58,0,0,1-3,3.7,10.4,10.4,0,0,1-4.4,1.5,8.89,8.89,0,0,1-4.6-1.3,7.5,7.5,0,0,1-3.2-3.9l-33.6-80.6,1.8.6-33.2,80a8.4,8.4,0,0,1-3.5,3.9,9.4,9.4,0,0,1-4.7,1.3,9.57,9.57,0,0,1-4.1-1.5,6.7,6.7,0,0,1-2.9-3.7L458.6,445a9.87,9.87,0,0,1-.6-3,7.5,7.5,0,0,1,3-6.3,9.86,9.86,0,0,1,6-2.3,8.48,8.48,0,0,1,4.6,1.4,7,7,0,0,1,3,4L512,549h-3l32.6-80.6a8.55,8.55,0,0,1,3-3.8,7.85,7.85,0,0,1,4.6-1.4,8.32,8.32,0,0,1,4.7,1.4,7.14,7.14,0,0,1,2.9,3.8l31.6,79.4-2.6,1,37.2-110a7,7,0,0,1,3-4A9.14,9.14,0,0,1,631,433.4Z" transform="translate(-0.5 -0.5)"/><path class="cls-1" d="M670.2,434h71.2a8.1,8.1,0,0,1,5.8,2.3,7.57,7.57,0,0,1,2.4,5.7,7,7,0,0,1-2.4,5.5,8.52,8.52,0,0,1-5.8,2.1H677l1.8-3.4v50.4l-2-2.2h55.6a8.27,8.27,0,0,1,5.8,2.2,7.5,7.5,0,0,1,2.4,5.8,7,7,0,0,1-2.4,5.5,8.52,8.52,0,0,1-5.8,2.1h-55l1.4-2v51.8l-1.2-1.4h63.8a7.91,7.91,0,0,1,5.8,2.4,7.46,7.46,0,0,1,2.4,5.4,7.26,7.26,0,0,1-2.4,5.6,8.27,8.27,0,0,1-5.8,2.2H670.2a8.19,8.19,0,0,1-8.2-8.2V442.2a8.19,8.19,0,0,1,8.2-8.2Z" transform="translate(-0.5 -0.5)"/><path class="cls-1" d="M836.2,434q17.79,0,27.3,9.1t9.5,25.7a33.58,33.58,0,0,1-4,16.2,29.76,29.76,0,0,1-11.7,11.8q-7.71,4.4-19.1,4.8L838,496a55.3,55.3,0,0,1,14.4,2,42.54,42.54,0,0,1,13.6,6.4A34.54,34.54,0,0,1,876.2,516q4,7.2,4,17.8,0,11.4-3.8,19.2a32.86,32.86,0,0,1-10.1,12.4,40.89,40.89,0,0,1-14,6.6,62.41,62.41,0,0,1-15.7,2H784.2a8.19,8.19,0,0,1-8.2-8.2V442.2a8.19,8.19,0,0,1,8.2-8.2ZM834,449.8H791l2.4-3.4V496l-2.2-2.6h43a21.74,21.74,0,0,0,15.1-5.7q6.3-5.7,6.3-16.7,0-10.2-5.7-15.7T834,449.8Zm1.4,59.6H792l1.4-1.4v52.2l-1.6-1.8h44.4q11.59,0,19.1-6t7.5-18.6q0-9.79-4-15a21.13,21.13,0,0,0-10.3-7.3A41.17,41.17,0,0,0,835.4,509.4Z" transform="translate(-0.5 -0.5)"/></g></g></svg>